<svg xmlns="http://www.w3.org/2000/svg" width="933" height="723" viewBox="0 0 933 723" fill="none"><path d="M62.2731 641.342H923.894C951.967 641.342 901.726 656.009 885.273 672.463C868.82 688.916 869.772 695.774 828.794 708.179C740.693 734.966 703.025 682.535 563.159 703.179C503.632 711.965 427.437 728.775 367.624 719.846C317.145 712.322 304.882 677.892 266.737 675.106C208.162 670.82 178.947 675.106 125.491 672.415C79.7027 670.224 -10.9455 641.342 62.2731 641.342Z" fill="url(#paint0_linear)"></path><path d="M720.17 641.341C717.408 546.526 738.861 431.424 813.556 366.087C825.462 355.61 840.224 342.085 857.225 343.323C865.154 343.895 869.131 352.848 870.274 359.681C872.393 371.587 870.274 384.016 867.392 395.826C851.225 461.14 797.889 575.456 784.245 641.341" fill="url(#paint1_linear)"></path><path d="M846.01 368.539C796.126 433.138 768.6 514.095 761.409 594.885C759.934 609.783 759.6 624.772 760.409 639.721C760.439 639.874 760.52 640.011 760.64 640.11C760.759 640.209 760.909 640.263 761.064 640.263C761.219 640.263 761.369 640.209 761.489 640.11C761.608 640.011 761.69 639.874 761.719 639.721C760.7 568.877 776.189 498.768 806.96 434.948C818.093 411.803 831.433 389.787 846.795 369.206C847.105 368.777 846.391 368.206 846.057 368.634L846.01 368.539Z" fill="#92D0FF"></path><path d="M784.244 641.338C794.245 579.977 804.745 529.855 839.938 478.567C854.391 457.47 882.274 431.397 904.442 433.564C928.252 435.945 911.371 471.828 897.298 498.663C878.198 534.538 865.011 573.26 858.248 613.336C860.201 601.312 868.558 567.072 893.227 551.833C900.37 547.38 918.276 544.69 918.276 559.571C918.276 585.621 892.965 616.908 886.631 641.338" fill="url(#paint2_linear)"></path><path d="M896.774 452.186C882.654 470.139 872.535 491.641 863.01 512.261C850.274 539.433 839.686 567.56 831.342 596.385C827.061 610.448 824.181 624.9 822.746 639.53C822.746 640.149 823.627 640.125 823.699 639.53C827.127 611.91 835.604 585.003 845.128 558.978C854.92 532.198 866.585 506.14 880.035 480.997C885.081 471.126 890.935 461.688 897.536 452.781C897.917 452.281 897.06 451.615 896.655 452.115L896.774 452.186Z" fill="#92D0FF"></path><path d="M904.109 561.405C883.679 581.93 874.631 613.504 869.512 641.196C869.512 641.934 870.488 642.243 870.655 641.505C876.964 613.837 884.632 583.24 904.799 562.096C905.228 561.644 904.561 560.953 904.109 561.405V561.405Z" fill="#92D0FF"></path><path d="M221.688 641.34C207.211 521.69 217.735 469.545 231.355 436.4C237.712 420.97 246.832 405.66 259.737 394.778C311.383 351.181 309.74 435.947 307.359 461.639C301.835 520.167 287.144 582.742 285.929 641.34" fill="url(#paint3_linear)"></path><path d="M175.089 641.339C173.446 603.694 156.636 566.978 135.23 536.571C113.824 506.165 84.1078 481.663 64.7257 449.566C54.3441 432.375 37.9384 405.349 62.2256 391.253C89.1557 375.61 128.729 391.992 150.326 409.874C173.899 429.303 189.376 456.852 202.305 484.044C225.14 532.071 229.711 588.146 230.069 641.315" fill="url(#paint4_linear)"></path><path d="M180.257 641.338C180.376 603.026 160.851 562.595 130.016 532.665C109.872 513.093 85.7752 494.782 58.3212 486.71C44.0347 482.519 4.17529 475.9 0.175058 499.592C-1.32503 508.592 6.77066 525.474 26.2004 540.856C53.2019 562.286 127.778 595.454 136.778 641.338" fill="url(#paint5_linear)"></path><path d="M18.4626 501.167C67.4416 514.81 113.706 548.312 138.422 593.124C146.533 607.954 152.285 623.956 155.471 640.556C155.59 641.222 156.566 640.937 156.447 640.294C147.137 584.148 105.063 539.431 55.4409 514.548C43.6894 508.581 31.3743 503.795 18.6769 500.262C18.5739 500.259 18.473 500.291 18.3909 500.354C18.3088 500.416 18.2504 500.504 18.2254 500.604C18.2004 500.704 18.2103 500.81 18.2534 500.903C18.2965 500.997 18.3704 501.073 18.4626 501.119V501.167Z" fill="#92D0FF"></path><path d="M75.0839 406.566C100.062 420.019 120.467 441.496 136.992 464.331C158.751 495.118 174.801 529.564 184.376 566.027C190.763 590.392 194.829 615.306 196.519 640.436C196.519 641.508 198.258 641.532 198.21 640.436C194.781 565.099 166.232 484.856 110.872 431.877C100.387 421.544 88.5097 412.728 75.5839 405.685C75.0839 405.423 74.6314 406.185 75.1315 406.471L75.0839 406.566Z" fill="#92D0FF"></path><path d="M278.953 393.918C253.809 453.826 247.761 521.592 246.118 585.905C245.666 604.073 245.547 622.265 246.261 640.432C246.261 640.628 246.339 640.816 246.477 640.954C246.616 641.093 246.803 641.17 246.999 641.17C247.195 641.17 247.383 641.093 247.521 640.954C247.659 640.816 247.737 640.628 247.737 640.432C247.547 574.905 249.19 508.948 264.405 444.873C268.394 427.624 273.639 410.689 280.096 394.204C280.358 393.537 279.287 393.275 279.025 393.918H278.953Z" fill="#92D0FF"></path><path d="M143.731 641.342C139.112 620.674 135.04 599.149 122.73 581.339C114.682 569.695 98.2523 553.456 83.6324 553.718C72.7508 553.908 70.2745 564.361 71.5365 573.791C74.87 598.459 88.5375 605.983 93.8473 632.675C91.2043 622.555 74.7986 587.553 60.512 600.935C44.7492 615.674 68.2267 641.413 68.2267 641.413" fill="url(#paint6_linear)"></path><path d="M66.4177 607.764C75.2017 617.747 82.2302 629.148 87.2047 641.48C87.2552 641.593 87.3445 641.685 87.4564 641.739C87.5684 641.793 87.6957 641.805 87.8159 641.774C87.936 641.742 88.0411 641.669 88.1124 641.567C88.1836 641.465 88.2163 641.342 88.2048 641.218C84.8474 628.17 75.8707 616.978 67.013 607.145C66.6559 606.74 66.0606 607.335 66.4177 607.764V607.764Z" fill="#92D0FF"></path><path d="M89.0619 569.171C108.111 588.958 116.706 616.388 126.136 641.485C126.374 642.104 127.326 641.866 127.136 641.223C123.762 629.921 119.6 618.87 114.682 608.149C108.301 593.863 100.729 579.576 89.6572 568.552C89.2762 568.171 88.6809 568.766 89.0619 569.171Z" fill="#92D0FF"></path><path d="M563.611 446.26H568.374" stroke="#B3D3F4" stroke-miterlimit="10"></path><path d="M577.876 446.257H832.843C842.857 446.435 852.806 444.616 862.11 440.907C871.413 437.198 879.885 431.672 887.03 424.654C894.174 417.635 899.849 409.263 903.723 400.027C907.597 390.791 909.592 380.875 909.592 370.86C909.592 360.844 907.597 350.929 903.723 341.693C899.849 332.456 894.174 324.085 887.03 317.066C879.885 310.047 871.413 304.521 862.11 300.812C852.806 297.103 842.857 295.284 832.843 295.462H258.048C247.445 295.462 237.276 291.25 229.779 283.753C222.281 276.256 218.069 266.087 218.069 255.484V255.484C218.069 244.879 222.281 234.708 229.777 227.206C237.274 219.705 247.443 215.488 258.048 215.482H741.028C750.263 215.242 759.039 211.405 765.486 204.789C771.933 198.173 775.541 189.301 775.541 180.063C775.541 170.825 771.933 161.953 765.486 155.336C759.039 148.72 750.263 144.884 741.028 144.644H299.05C293.885 144.644 288.93 142.592 285.278 138.939C281.625 135.287 279.573 130.332 279.573 125.167C279.573 120.001 281.625 115.047 285.278 111.394C288.93 107.742 293.885 105.689 299.05 105.689H418.105" stroke="#B3D3F4" stroke-miterlimit="10" stroke-dasharray="3.99 3.99"></path><path d="M422.795 105.689H427.557" stroke="#B3D3F4" stroke-miterlimit="10"></path><path d="M457.963 42.638C449.346 41.1813 440.488 42.5164 432.683 46.4485C424.877 50.3805 418.532 56.7039 414.574 64.4959C410.615 72.288 409.25 81.1411 410.678 89.7637C412.105 98.3863 416.25 106.327 422.509 112.428L416.961 123.69L429.39 117.88C434.532 121.095 440.323 123.13 446.346 123.838C452.369 124.546 458.474 123.91 464.221 121.976C469.969 120.042 475.216 116.858 479.586 112.653C483.955 108.448 487.338 103.326 489.491 97.6571C491.644 91.9878 492.513 85.9118 492.037 79.8663C491.56 73.8208 489.748 67.9562 486.733 62.6946C483.718 57.433 479.574 52.9052 474.6 49.4372C469.625 45.9691 463.943 43.647 457.963 42.638V42.638Z" fill="#F3FAFF"></path><path d="M432.866 102.404L428.628 97.4033C427.873 96.4462 427.514 95.2362 427.625 94.0226C427.736 92.8089 428.308 91.6838 429.223 90.8791L433.985 86.8074C434.941 86.0601 436.145 85.7055 437.353 85.8161C438.561 85.9268 439.682 86.4942 440.485 87.4027C440.485 87.4027 442.747 90.7838 445.39 90.1886C448.034 89.5933 454.915 84.712 458.463 81.0214C460.844 78.4022 456.772 73.8781 456.772 73.8781C456.382 73.4133 456.088 72.8759 455.906 72.2967C455.725 71.7176 455.66 71.1082 455.715 70.5038C455.77 69.8995 455.945 69.3121 456.229 68.7755C456.512 68.2389 456.899 67.7639 457.367 67.3777L462.13 63.306C463.085 62.5587 464.29 62.2042 465.498 62.3148C466.706 62.4254 467.826 62.9928 468.63 63.9013L472.868 68.973C482.655 80.2832 441.2 112.38 432.866 102.404Z" fill="#B3D3F4"></path><path d="M636.711 104.903C642.783 99.0695 645.307 92.9977 653.688 91.1881C655.426 90.9643 657.115 90.4576 658.689 89.688C662.76 87.1402 661.927 81.378 662.832 76.8063C664.641 67.782 676.428 62.0912 685.047 66.0438C688.667 67.7106 691.929 70.806 695.929 70.4964C703.929 69.9488 703.072 60.0911 708.43 54.4717C713.787 48.8523 724.097 48.4713 730.812 51.8287C735.392 54.0904 739.41 57.344 742.575 61.353C745.837 65.5676 745.67 72.0679 748.075 76.7111C750.48 81.3542 755.837 83.14 758.218 87.5688C759.3 89.3382 759.955 91.3348 760.133 93.4009C760.311 95.4671 760.006 97.5462 759.242 99.4743C755.837 107.665 745.813 113.57 736.741 113.57H614.091C614.091 113.57 629.877 111.404 636.711 104.903Z" fill="#F3FAFF"></path><path d="M342.933 46.6627C337.814 41.7339 335.671 36.6622 328.646 35.0668C327.177 34.8892 325.75 34.4539 324.432 33.781C320.979 31.6381 321.67 26.7568 320.908 22.8994C319.384 15.28 309.431 10.4702 302.145 13.8275C299.073 15.2323 296.311 17.8039 292.93 17.5896C286.192 17.1134 287.001 8.77959 282.382 4.04122C277.763 -0.697151 269.143 -1.03051 263.476 1.80299C259.594 3.72263 256.193 6.48923 253.523 9.8987C250.761 13.4465 250.904 18.9468 248.761 22.8756C246.618 26.8044 242.213 28.3045 240.189 32.0428C239.276 33.5452 238.724 35.2385 238.575 36.9901C238.426 38.7417 238.685 40.5039 239.332 42.1386C242.213 49.0438 250.69 54.0441 258.381 54.0441H362.053C362.053 54.0441 348.671 52.1631 342.933 46.6627Z" fill="#F3FAFF"></path><path d="M821.128 158.599L749.076 120.049L768.053 63.7363L855.725 109.12L821.128 158.599Z" fill="#CFE0F5"></path><path d="M855.725 109.117L768.053 63.7329L830.556 50.375L855.725 109.117Z" fill="#CFE0F5"></path><path d="M849.08 100.005L778.877 63.6621L748.182 122.954L818.385 159.297L849.08 100.005Z" fill="#FFF4E1"></path><path d="M768.052 63.7363L738.526 120.74L796.077 116.954L768.052 63.7363Z" fill="#E6F1FC"></path><path d="M855.725 109.121L826.224 166.148L796.079 116.955L855.725 109.121Z" fill="#E6F1FC"></path><g style="mix-blend-mode:multiply"><path d="M826.222 166.147L738.526 120.739L805.197 99.6191L826.222 166.147Z" fill="#E6F1FC"></path></g><path d="M826.222 166.146L738.526 120.738L801.03 107.404L826.222 166.146Z" fill="#E6F1FC"></path><path d="M242.879 182.43L184.161 197.145L166.541 156.81L237.236 138.07L242.879 182.43Z" fill="#CFE0F5"></path><path d="M237.236 138.072L166.541 156.812L194.185 118.381L237.236 138.072Z" fill="#CFE0F5"></path><path d="M229.053 136.357L172.455 151.354L185.122 199.159L241.72 184.163L229.053 136.357Z" fill="#FFF4E1"></path><path d="M166.541 156.812L178.732 202.768L208.401 172.051L166.541 156.812Z" fill="#E6F1FC"></path><path d="M237.236 138.07L249.428 184.049L208.401 172.048L237.236 138.07Z" fill="#E6F1FC"></path><g style="mix-blend-mode:multiply"><path d="M249.428 184.053L178.733 202.768L204.783 158.004L249.428 184.053Z" fill="#E6F1FC"></path></g><path d="M249.428 184.053L178.733 202.769L206.378 164.338L249.428 184.053Z" fill="#E6F1FC"></path><path d="M473.893 102.167L476.083 98.7622C475.658 96.9601 475.45 95.1134 475.464 93.2618C475.419 91.4589 475.751 89.6664 476.44 87.9997C476.988 87.6901 477.25 91.0474 477.488 90.9284C477.726 90.8093 479.464 84.2137 480.441 84.309C480.941 84.309 479.226 90.7141 479.226 90.7141C479.226 90.7141 480.917 83.8089 481.607 84.047C482.298 84.2851 480.536 90.8808 480.536 90.8808C480.536 90.8808 482.155 84.6185 482.798 84.809C483.441 84.9995 481.75 91.1427 481.75 91.1427C481.75 91.1427 483.369 85.69 483.726 85.9995C484.084 86.3091 483.727 90.2141 482.107 95.5239C481.822 96.4287 480.512 99.4527 480.441 99.7146L478.869 105.429" fill="#FC8975"></path><path d="M477.489 91.6647C478.119 92.6253 478.615 93.6665 478.965 94.7601C479.194 96.0153 479.07 97.3093 478.608 98.4985C478.608 98.6889 478.846 98.8318 478.942 98.6413C479.487 97.4712 479.667 96.1639 479.459 94.8899C479.251 93.6158 478.664 92.4339 477.775 91.4981C477.656 91.3552 477.394 91.498 477.489 91.6647Z" fill="#CC6658"></path><path d="M398.912 512.236C398.912 512.236 411.651 516.879 411.746 520.642C411.746 522.808 393.269 522.761 392.126 521.332C390.268 518.951 393.483 512.713 393.483 512.713L398.912 512.236Z" fill="#352E72"></path><path d="M398.7 501.736L398.985 512.57C398.838 513.105 398.531 513.583 398.106 513.94C397.681 514.298 397.157 514.517 396.604 514.57C394.723 514.832 393.437 512.712 393.437 512.712L392.89 499.164" fill="#FC8975"></path><path d="M407.391 260.509C407.391 260.509 414.32 302.582 410.843 383.301C408.462 438.424 401.033 505.07 398.295 505.142C396.568 505.179 394.842 505.091 393.128 504.88C393.128 504.88 375.77 424.994 374.579 380.015C372.77 310.726 354.483 294.844 362.412 258.842" fill="url(#paint7_linear)"></path><path d="M400.08 500.736L399.58 505.522L391.961 505.737L391.604 500.974L400.08 500.736Z" fill="#75A1E9"></path><path d="M359.695 513.311C359.695 513.311 372.434 518.073 372.506 521.74C372.506 523.883 354.052 523.835 352.885 522.406C351.052 520.025 354.266 513.787 354.266 513.787L359.695 513.311Z" fill="#352E72"></path><path d="M359.435 502.81L359.697 513.644C359.563 514.165 359.276 514.635 358.873 514.991C358.469 515.348 357.968 515.575 357.435 515.644C355.553 515.906 354.268 513.787 354.268 513.787L353.696 500.238" fill="#FC8975"></path><path d="M384.935 261.129C384.935 261.129 381.673 314.632 377.578 376.397C375.935 400.804 361.934 502.833 359.958 506.191L353.029 506.381C353.029 506.381 342.48 418.114 341.29 373.04C339.48 303.774 332.027 295.393 339.956 259.391" fill="url(#paint8_linear)"></path><path d="M361.006 501.811L360.483 506.597L352.887 506.811L352.506 502.049L361.006 501.811Z" fill="#75A1E9"></path><path d="M383.268 288.201C383.268 288.201 380.554 356.562 375.577 396.612" stroke="#4A578E" stroke-width="0.5" stroke-miterlimit="10"></path><path d="M392.221 118.666C387.864 110.999 376.101 112.165 369.362 115.666C359.838 120.642 357.457 134.833 348.599 140.905C344.647 143.572 339.885 145.167 336.694 148.763C334.933 150.978 333.772 153.609 333.322 156.403C332.871 159.197 333.147 162.06 334.122 164.716C336.157 169.987 339.939 174.4 344.837 177.217C349.672 179.948 354.913 181.886 360.362 182.955C368.958 184.955 378.125 186.003 386.554 183.098C394.983 180.193 402.15 172.407 402.102 163.383C402.102 155.763 397.078 148.62 397.959 141.048" fill="#081466"></path><path d="M474.56 99.5684C474.56 99.5684 451.773 132.285 446.535 139.737C438.415 151.309 405.08 153.548 387.269 164.096L374.911 165.453C369.03 166.644 348.719 181.049 346.886 186.883C342.576 200.146 338.195 213.575 337.362 227.528C337.1 232.29 337.362 237.052 337.362 241.815C337.576 248.672 337.814 255.506 338.028 262.363C338.003 262.821 338.111 263.275 338.338 263.673C338.676 264.017 339.121 264.235 339.6 264.292C361.982 269.459 385.293 266.673 408.08 263.887C408.881 263.856 409.653 263.582 410.294 263.102C410.92 262.315 411.219 261.317 411.128 260.316C411.247 255.935 411.009 251.553 410.818 247.172C410.111 228.176 410.827 209.153 412.961 190.264C420.104 185.835 449.201 176.692 458.964 163.048C472.018 144.926 479.604 123.441 480.822 101.14L474.56 99.5684Z" fill="url(#paint9_linear)"></path><path d="M387.293 164.075L386.841 148.432L379.912 149.384L374.936 165.266C375.823 166.323 376.98 167.121 378.283 167.573C379.587 168.026 380.989 168.117 382.341 167.838C383.461 167.826 384.547 167.453 385.439 166.776C386.331 166.098 386.981 165.151 387.293 164.075V164.075Z" fill="#FC8975"></path><path d="M372.483 142.051C372.004 136.206 373.7 130.389 377.245 125.717C380.483 122.121 386.531 121.597 391.008 122.216C392.555 122.37 394.027 122.965 395.246 123.931C399.651 127.598 399.365 136.027 399.056 141.194C398.909 145.604 397.404 149.862 394.746 153.385C393.925 154.487 392.846 155.37 391.603 155.957C389.306 156.777 386.843 157.019 384.43 156.662C382.017 156.305 379.729 155.359 377.769 153.909C376.117 152.404 374.795 150.574 373.885 148.533C372.976 146.492 372.498 144.285 372.483 142.051V142.051Z" fill="#FC8975"></path><path d="M370.504 146.999C368.885 147.761 366.337 148.309 365.076 146.523C364.075 145.094 364.956 142.952 365.314 141.428C366.455 136.485 367.878 131.612 369.576 126.832C370.353 124.3 371.492 121.894 372.957 119.688C375.957 115.545 384.481 113.64 389.505 114.116C395.006 113.736 403.792 122.712 399.03 133.165C398.315 130.617 397.292 130.784 395.411 128.665C393.55 130.446 391.123 131.517 388.553 131.689C385.219 131.998 381.41 131.237 379.029 133.57C376.648 135.903 377.052 140.237 375.219 143.213C374.077 144.933 372.43 146.255 370.504 146.999V146.999Z" fill="#081466"></path><path d="M376.196 143.097C376.258 142.833 376.265 142.559 376.216 142.293C376.167 142.027 376.063 141.774 375.91 141.55C375.758 141.326 375.561 141.136 375.331 140.992C375.102 140.849 374.845 140.754 374.577 140.715C372.053 140.454 371.291 144.43 372.196 146.24C372.934 147.573 374.767 148.621 375.72 147.073" fill="#FC8975"></path><path d="M380.46 152.432C379.832 152.387 379.21 152.283 378.602 152.123C376.693 151.7 375.002 150.6 373.84 149.027C373.4 148.447 373.136 147.753 373.078 147.027C373.078 146.951 373.108 146.879 373.162 146.825C373.215 146.771 373.288 146.741 373.364 146.741C373.4 146.738 373.437 146.742 373.471 146.754C373.506 146.766 373.538 146.784 373.565 146.809C373.592 146.834 373.613 146.864 373.628 146.897C373.642 146.931 373.65 146.967 373.65 147.003C373.704 147.612 373.936 148.192 374.316 148.67C375.394 150.125 376.957 151.146 378.721 151.551C380.467 151.911 382.256 152.015 384.031 151.861C384.069 151.857 384.107 151.862 384.142 151.873C384.178 151.884 384.212 151.903 384.24 151.927C384.269 151.952 384.293 151.981 384.31 152.015C384.327 152.048 384.338 152.085 384.341 152.123C384.344 152.162 384.339 152.202 384.326 152.239C384.313 152.277 384.293 152.311 384.266 152.34C384.239 152.369 384.206 152.393 384.17 152.408C384.134 152.424 384.095 152.432 384.055 152.432C382.858 152.527 381.656 152.527 380.46 152.432V152.432Z" fill="#081466"></path><path d="M385.341 151.407C384.823 151.193 384.24 151.193 383.722 151.407C381.912 152.002 383.889 154.383 385.532 153.169C385.668 153.066 385.781 152.936 385.865 152.788C385.924 152.663 385.958 152.528 385.963 152.39C385.969 152.252 385.946 152.115 385.897 151.986C385.848 151.857 385.774 151.739 385.678 151.64C385.583 151.54 385.468 151.461 385.341 151.407V151.407Z" fill="#081466"></path><path d="M368.292 132.812C368.694 128.527 370.213 124.422 372.697 120.907C375.911 116.811 380.221 113.43 384.341 113.43C386.099 113.355 387.856 113.63 389.507 114.24C385.176 115.269 381.258 117.585 378.269 120.883C374.881 124.518 372.948 129.273 372.84 134.241" fill="#75A1E9"></path><path d="M378.696 139.575C379.011 141.679 378.483 143.823 377.225 145.54C375.968 147.257 374.083 148.407 371.981 148.742C370.933 148.8 369.885 148.65 368.895 148.302C367.905 147.953 366.993 147.413 366.212 146.712C365.431 146.011 364.797 145.163 364.344 144.216C363.892 143.269 363.631 142.242 363.576 141.194C363.267 139.09 363.798 136.949 365.055 135.234C366.311 133.519 368.192 132.367 370.291 132.027C372.406 131.916 374.478 132.649 376.053 134.064C377.629 135.478 378.579 137.46 378.696 139.575V139.575Z" fill="#75A1E9"></path><path d="M375.102 140.262C375.346 141.669 375.025 143.115 374.209 144.287C373.393 145.459 372.149 146.263 370.745 146.524C369.597 146.813 368.389 146.744 367.281 146.328C366.174 145.911 365.22 145.167 364.547 144.193C363.874 143.22 363.515 142.064 363.517 140.881C363.518 139.697 363.882 138.543 364.557 137.572C365.233 136.6 366.19 135.859 367.299 135.445C368.408 135.032 369.616 134.968 370.763 135.26C371.909 135.553 372.939 136.189 373.715 137.082C374.49 137.976 374.974 139.085 375.102 140.262V140.262Z" fill="#2D4CBA"></path><path d="M526.729 126.715L271.5 350.228V657.555H781.982V350.228L526.729 126.715Z" fill="url(#paint10_linear)"></path><path d="M756.171 205.336H297.287V625.837H756.171V205.336Z" fill="url(#paint11_linear)"></path><path d="M729.908 259.963H323.575V295.87H729.908V259.963Z" fill="white"></path><path d="M729.908 312.705H323.575V348.612H729.908V312.705Z" fill="white"></path><path d="M729.908 365.418H323.575V578.93H729.908V365.418Z" fill="white"></path><path d="M350.714 273.678L350.403 272.658H348.842L348.531 273.678H347.553L349.064 269.377H350.175L351.692 273.678H350.714ZM350.187 271.896C349.899 270.973 349.737 270.45 349.7 270.329C349.665 270.208 349.64 270.112 349.624 270.042C349.56 270.292 349.375 270.91 349.07 271.896H350.187ZM354.048 273.678L353.017 270.317H352.99C353.027 271.001 353.046 271.457 353.046 271.686V273.678H352.234V269.395H353.471L354.484 272.67H354.502L355.577 269.395H356.813V273.678H355.967V271.65C355.967 271.555 355.968 271.444 355.97 271.319C355.974 271.194 355.987 270.862 356.011 270.323H355.984L354.88 273.678H354.048ZM360.361 273.678H357.895V269.395H360.361V270.139H358.803V271.079H360.253V271.823H358.803V272.928H360.361V273.678Z" fill="#EAC38F"></path><path d="M347.524 327.633L346.493 324.272H346.467C346.504 324.956 346.522 325.412 346.522 325.641V327.633H345.711V323.35H346.947L347.961 326.625H347.979L349.054 323.35H350.29V327.633H349.443V325.605C349.443 325.51 349.444 325.399 349.446 325.274C349.45 325.149 349.464 324.817 349.487 324.278H349.461L348.356 327.633H347.524ZM353.993 327.633L353.683 326.613H352.121L351.811 327.633H350.832L352.344 323.332H353.454L354.972 327.633H353.993ZM353.466 325.852C353.179 324.928 353.017 324.405 352.979 324.284C352.944 324.163 352.919 324.067 352.903 323.997C352.839 324.247 352.654 324.865 352.35 325.852H353.466ZM355.514 327.633V323.35H356.422V327.633H355.514ZM357.5 327.633V323.35H358.408V326.883H360.146V327.633H357.5Z" fill="#EAC38F"></path><path d="M369.714 380.324L369.403 379.305H367.842L367.531 380.324H366.553L368.064 376.023H369.175L370.692 380.324H369.714ZM369.187 378.543C368.899 377.619 368.737 377.097 368.7 376.976C368.665 376.854 368.64 376.759 368.624 376.688C368.56 376.938 368.375 377.557 368.07 378.543H369.187ZM372.86 377.919H374.56V380.14C374.284 380.229 374.024 380.292 373.78 380.327C373.538 380.364 373.29 380.383 373.036 380.383C372.39 380.383 371.896 380.193 371.554 379.814C371.214 379.434 371.044 378.888 371.044 378.177C371.044 377.485 371.241 376.946 371.636 376.56C372.032 376.173 372.581 375.979 373.282 375.979C373.722 375.979 374.146 376.067 374.554 376.243L374.252 376.97C373.939 376.813 373.614 376.735 373.276 376.735C372.884 376.735 372.569 376.867 372.333 377.131C372.097 377.395 371.979 377.749 371.979 378.194C371.979 378.659 372.073 379.015 372.263 379.261C372.454 379.505 372.731 379.627 373.095 379.627C373.284 379.627 373.477 379.607 373.672 379.568V378.675H372.86V377.919ZM378.049 380.324H375.582V376.041H378.049V376.785H376.49V377.726H377.94V378.47H376.49V379.574H378.049V380.324Z" fill="#EAC38F"></path><path d="M471.906 225.216C471.393 225.216 470.996 225.41 470.715 225.796C470.434 226.18 470.293 226.716 470.293 227.405C470.293 228.837 470.831 229.554 471.906 229.554C472.357 229.554 472.903 229.441 473.545 229.215V230.358C473.018 230.578 472.429 230.688 471.778 230.688C470.844 230.688 470.129 230.405 469.634 229.839C469.139 229.271 468.891 228.457 468.891 227.396C468.891 226.728 469.013 226.144 469.256 225.643C469.499 225.139 469.848 224.753 470.302 224.487C470.759 224.217 471.293 224.083 471.906 224.083C472.53 224.083 473.157 224.233 473.787 224.535L473.347 225.643C473.107 225.528 472.865 225.429 472.622 225.344C472.379 225.259 472.14 225.216 471.906 225.216ZM480.748 227.378C480.748 228.442 480.484 229.259 479.957 229.831C479.429 230.402 478.673 230.688 477.689 230.688C476.705 230.688 475.949 230.402 475.421 229.831C474.894 229.259 474.63 228.439 474.63 227.37C474.63 226.3 474.894 225.484 475.421 224.922C475.952 224.356 476.71 224.074 477.698 224.074C478.685 224.074 479.439 224.358 479.961 224.926C480.485 225.495 480.748 226.312 480.748 227.378ZM476.059 227.378C476.059 228.096 476.195 228.637 476.467 229C476.74 229.363 477.147 229.545 477.689 229.545C478.776 229.545 479.319 228.823 479.319 227.378C479.319 225.931 478.779 225.208 477.698 225.208C477.156 225.208 476.747 225.391 476.472 225.757C476.196 226.12 476.059 226.661 476.059 227.378ZM487.779 230.6H486.047L483.252 225.739H483.213C483.269 226.598 483.296 227.21 483.296 227.576V230.6H482.079V224.175H483.797L486.588 228.987H486.619C486.575 228.152 486.553 227.562 486.553 227.216V224.175H487.779V230.6ZM491.879 230.6H490.517V225.309H488.772V224.175H493.624V225.309H491.879V230.6ZM498.545 230.6L498.08 229.07H495.737L495.271 230.6H493.804L496.071 224.148H497.737L500.013 230.6H498.545ZM497.754 227.928C497.324 226.542 497.081 225.758 497.025 225.577C496.972 225.395 496.934 225.251 496.911 225.146C496.814 225.521 496.537 226.448 496.08 227.928H497.754ZM503.555 225.216C503.042 225.216 502.646 225.41 502.364 225.796C502.083 226.18 501.942 226.716 501.942 227.405C501.942 228.837 502.48 229.554 503.555 229.554C504.006 229.554 504.553 229.441 505.194 229.215V230.358C504.667 230.578 504.078 230.688 503.428 230.688C502.493 230.688 501.778 230.405 501.283 229.839C500.788 229.271 500.541 228.457 500.541 227.396C500.541 226.728 500.662 226.144 500.905 225.643C501.148 225.139 501.497 224.753 501.951 224.487C502.408 224.217 502.943 224.083 503.555 224.083C504.179 224.083 504.806 224.233 505.436 224.535L504.997 225.643C504.756 225.528 504.515 225.429 504.271 225.344C504.028 225.259 503.79 225.216 503.555 225.216ZM509.044 230.6H507.682V225.309H505.937V224.175H510.789V225.309H509.044V230.6ZM519.345 224.175V228.332C519.345 228.807 519.238 229.223 519.024 229.58C518.813 229.938 518.507 230.211 518.105 230.402C517.704 230.592 517.229 230.688 516.682 230.688C515.855 230.688 515.214 230.477 514.757 230.055C514.3 229.63 514.071 229.05 514.071 228.314V224.175H515.429V228.108C515.429 228.603 515.529 228.966 515.728 229.198C515.927 229.429 516.257 229.545 516.717 229.545C517.162 229.545 517.484 229.429 517.684 229.198C517.886 228.963 517.987 228.597 517.987 228.099V224.175H519.345ZM524.71 228.815C524.71 229.396 524.501 229.853 524.082 230.187C523.666 230.521 523.086 230.688 522.342 230.688C521.656 230.688 521.05 230.559 520.522 230.301V229.035C520.956 229.229 521.322 229.365 521.621 229.444C521.923 229.523 522.198 229.562 522.447 229.562C522.746 229.562 522.975 229.505 523.133 229.391C523.294 229.277 523.375 229.107 523.375 228.881C523.375 228.755 523.339 228.644 523.269 228.547C523.199 228.448 523.095 228.353 522.957 228.262C522.822 228.171 522.545 228.026 522.126 227.827C521.734 227.642 521.439 227.465 521.243 227.295C521.047 227.125 520.89 226.927 520.773 226.702C520.656 226.476 520.597 226.212 520.597 225.911C520.597 225.342 520.789 224.896 521.173 224.57C521.56 224.245 522.093 224.083 522.772 224.083C523.106 224.083 523.424 224.122 523.726 224.201C524.031 224.28 524.349 224.392 524.68 224.535L524.24 225.594C523.897 225.454 523.613 225.355 523.388 225.3C523.165 225.244 522.945 225.216 522.729 225.216C522.471 225.216 522.273 225.276 522.135 225.396C521.998 225.517 521.929 225.673 521.929 225.867C521.929 225.987 521.957 226.092 522.012 226.183C522.068 226.271 522.156 226.357 522.276 226.442C522.399 226.524 522.688 226.674 523.142 226.891C523.742 227.178 524.154 227.466 524.376 227.756C524.599 228.043 524.71 228.396 524.71 228.815Z" fill="#EAC38F"></path><g style="mix-blend-mode:multiply" opacity="0.55"><path d="M526.729 545.337L271.5 350.23V625.842H781.982V350.23L526.729 545.337Z" fill="#C9D3F4"></path></g><path d="M526.729 577.101L271.5 350.23V657.558H781.982V350.23L526.729 577.101Z" fill="url(#paint12_linear)"></path><g style="mix-blend-mode:multiply" opacity="0.35"><path d="M526.729 416.924L271.5 657.557H781.982L526.729 416.924Z" fill="#C9D3F4"></path></g><path d="M526.729 440.377L271.5 657.556H781.982L526.729 440.377Z" fill="url(#paint13_linear)"></path><path d="M693.691 672.462C688.524 645.556 693.905 617.911 704.668 594.886C711.811 579.814 727.931 558.837 746.004 559.17C759.433 559.432 765.052 572.933 765.862 585.1C767.91 617.007 752.909 626.745 752.98 661.295C753.742 648.223 766.386 605.816 786.125 620.269C805.436 634.555 786.625 672.51 786.625 672.51" fill="url(#paint14_linear)"></path><path d="M780.53 628.387C772.387 641.65 764.982 656.603 764.291 672.414C764.291 672.985 765.243 673.152 765.315 672.556C767.797 657.093 773.212 642.246 781.268 628.816C781.313 628.719 781.32 628.609 781.288 628.507C781.256 628.405 781.187 628.319 781.095 628.265C781.002 628.211 780.893 628.194 780.789 628.217C780.684 628.239 780.592 628.3 780.53 628.387V628.387Z" fill="#92D0FF"></path><path d="M744.528 578.551C733.956 593.504 728.979 612.124 725.194 629.815C722.113 643.87 719.988 658.118 718.836 672.461C718.836 673.056 719.788 673.199 719.86 672.604C724.241 641.388 727.003 605.743 745.266 578.979C745.576 578.503 744.838 578.098 744.528 578.551V578.551Z" fill="#92D0FF"></path><path d="M356.338 238.15C357.667 239.152 359.135 239.954 360.696 240.531C362.97 240.161 365.273 240.001 367.577 240.055C369.428 240.197 371.228 240.724 372.863 241.603C373.077 242.174 369.553 242.103 369.625 242.341C369.696 242.579 376.22 245.008 375.958 245.984C375.815 246.484 369.506 244.127 369.506 244.127C369.506 244.127 376.387 246.508 375.982 247.27C375.577 248.032 369.077 245.508 369.077 245.508C369.077 245.508 375.292 247.77 374.934 248.413C374.577 249.056 368.529 247.437 368.529 247.437C368.529 247.437 373.815 248.603 373.53 249.222C369.789 249.122 366.096 248.356 362.624 246.96C359.658 245.783 356.85 244.239 354.267 242.365" fill="#FC8975"></path><path d="M358.624 191.623C352.885 200.338 339.575 210.41 332.432 216.6C336.622 222.291 360.386 240.03 360.386 240.03L358.171 245.316C358.171 245.316 312.93 237.197 311.454 214.815C310.597 201.433 327.527 181.717 340.67 172.455C353.004 163.788 367.434 162.359 375.029 165.455" fill="url(#paint15_linear)"></path><path d="M690.192 289.176C685.215 287.128 678.096 281.032 678.929 277.58C679.263 276.104 682.787 280.104 683.691 279.128C684.596 278.151 683.691 275.508 682.001 274.056C680.31 272.603 676.453 269.96 677.382 269.032C678.31 268.103 687.453 270.151 689.501 273.27C691.294 276.715 692.509 280.432 693.097 284.271L696.883 289.176" fill="#FC8975"></path><path d="M786.006 677.77C786.006 677.77 770.434 682.532 770.434 686.032C770.434 688.08 793.34 687.556 794.721 686.175C796.911 683.96 792.744 678.079 792.744 678.079L786.006 677.77Z" fill="#352E72"></path><path d="M786.006 667.839V678.078C786.256 678.63 786.661 679.098 787.173 679.424C787.685 679.75 788.281 679.919 788.887 679.911C789.628 679.927 790.363 679.77 791.033 679.451C791.702 679.133 792.289 678.663 792.744 678.078L793.006 665.268" fill="#FC8975"></path><path d="M767.433 440.422C767.433 440.422 760.29 480.305 767.147 556.405C771.909 608.36 783.243 671.054 786.625 671.054C788.757 671.046 790.888 670.918 793.006 670.673C793.006 670.673 811.864 594.836 811.864 552.357C811.864 486.925 833.913 471.4 822.96 437.684" fill="url(#paint16_linear)"></path><path d="M784.267 666.961L785.052 671.437H794.458L794.743 666.961H784.267Z" fill="#75A1E9"></path><path d="M834.651 677.77C834.651 677.77 819.055 682.532 819.079 686.032C819.079 688.08 841.961 687.556 843.342 686.175C845.557 683.96 841.39 678.079 841.39 678.079L834.651 677.77Z" fill="#352E72"></path><path d="M834.651 667.839V678.078C834.901 678.63 835.307 679.098 835.819 679.424C836.33 679.75 836.926 679.919 837.533 679.911C838.274 679.927 839.009 679.77 839.678 679.451C840.348 679.133 840.934 678.663 841.39 678.078L841.628 665.268" fill="#FC8975"></path><path d="M795.198 440.422C795.198 440.422 800.961 490.83 808.056 549.023C810.842 572.001 831.486 667.911 834.034 671.054H842.606C842.606 671.054 852.749 587.454 852.749 544.976C852.749 479.543 861.678 471.447 850.725 437.684" fill="url(#paint17_linear)"></path><path d="M832.605 666.961L833.391 671.437H842.797L843.082 666.961H832.605Z" fill="#75A1E9"></path><path d="M798.149 465.926C798.149 465.926 803.697 530.382 811.174 568.051" stroke="#4A578E" stroke-width="0.5" stroke-miterlimit="10"></path><path d="M852.938 432.067C852.938 427.9 856.176 356.015 843.699 339.776C840.151 332.204 827.031 323.632 816.697 319.918C807.53 316.632 801.744 319.203 797.649 319.918C780.1 314.87 739.979 318.251 728.859 312.536C722.716 309.393 694.071 284.559 694.071 284.559L688.714 288.726C688.714 288.726 705.834 324.442 725.073 336.99C738.621 345.776 758.694 350.658 769.433 352.801C769.266 354.753 769.147 356.92 769.028 359.325C768.433 372.159 766.98 394.708 768.457 432.186C768.599 435.758 764.742 440.329 764.742 442.711C764.742 445.092 769.385 452.616 807.959 452.616C840.699 452.616 856.247 447.854 856.247 442.353C856.247 436.853 852.938 436.234 852.938 432.067Z" fill="url(#paint18_linear)"></path><g style="mix-blend-mode:multiply" opacity="0.75"><path style="mix-blend-mode:multiply" opacity="0.75" d="M770.363 337.893C770.47 338.682 770.533 339.477 770.553 340.274C770.647 341.963 770.647 343.656 770.553 345.345C770.457 347.036 770.274 348.721 770.005 350.393C769.767 351.774 769.529 352.774 769.529 352.774C769.422 351.985 769.359 351.19 769.339 350.393C769.245 348.704 769.245 347.011 769.339 345.322C769.339 343.488 769.672 341.655 769.886 340.274C770.101 338.893 770.363 337.893 770.363 337.893Z" fill="url(#paint19_linear)"></path></g><path d="M795.198 275.797C793.721 281.559 790.174 297.393 793.436 302.37C795.228 304.708 797.753 306.378 800.606 307.112C803.46 307.845 806.477 307.601 809.175 306.418C811.833 305.143 814.184 303.309 816.067 301.04C817.949 298.771 819.318 296.122 820.08 293.274C821.572 287.576 822.024 281.655 821.414 275.797" fill="#FC8975"></path><path d="M801.484 296.774L799.103 315.989C799.103 315.989 799.936 321.37 802.865 323.418C805.108 323.227 807.266 322.472 809.14 321.223C811.013 319.974 812.54 318.272 813.58 316.275L811.437 291.535" fill="#FC8975"></path><path d="M814.15 281.104C810.435 279.77 805.316 280.247 800.649 279.461C797.328 279.208 794.05 278.553 790.887 277.508C785.315 275.127 785.839 266.674 790.363 263.484C790.957 262.968 791.649 262.58 792.399 262.343C793.148 262.105 793.938 262.023 794.72 262.103C796.339 262.484 796.935 264.198 798.387 264.841C799.139 265.154 799.959 265.269 800.768 265.174C801.385 265.139 801.975 264.914 802.459 264.531C803.268 263.841 803.578 262.769 804.34 262.031C805.108 261.341 806.044 260.865 807.054 260.65C808.143 260.361 809.28 260.299 810.394 260.467C811.508 260.635 812.575 261.03 813.531 261.626C814.114 262.149 814.772 262.583 815.483 262.912C816.739 263.119 817.975 263.438 819.174 263.865C820.727 264.948 822.017 266.366 822.948 268.015C823.88 269.663 824.429 271.5 824.555 273.389C824.555 273.937 825.484 274.461 825.817 274.841C827.163 276.719 828.074 278.872 828.486 281.145C828.898 283.419 828.8 285.755 828.198 287.985C827.679 292.49 825.528 296.65 822.15 299.676C820.68 300.598 819.072 301.281 817.388 301.7C810.959 304.081 814.221 286.223 813.936 281.104" fill="#352E72"></path><path d="M815.009 290.963C815.068 290.62 815.209 290.296 815.422 290.019C815.634 289.743 815.91 289.523 816.227 289.377C816.543 289.232 816.891 289.166 817.239 289.185C817.587 289.204 817.925 289.308 818.223 289.487C818.584 289.691 818.89 289.979 819.114 290.328C819.338 290.676 819.474 291.074 819.509 291.487C819.593 292.555 819.314 293.62 818.718 294.51C818.122 295.4 817.243 296.063 816.223 296.392C815.39 296.535 814.485 295.487 814.438 294.654" fill="#FC8975"></path><path d="M808.27 302.464C808.896 302.415 809.517 302.32 810.128 302.178C812.024 301.754 813.71 300.675 814.89 299.13C815.337 298.582 815.603 297.908 815.652 297.202C815.652 297.126 815.622 297.053 815.568 297C815.515 296.946 815.442 296.916 815.366 296.916C815.29 296.916 815.218 296.946 815.164 297C815.11 297.053 815.081 297.126 815.081 297.202C815.024 297.792 814.801 298.353 814.438 298.821C813.346 300.258 811.774 301.256 810.009 301.631C808.271 301.99 806.49 302.095 804.723 301.94C804.685 301.933 804.645 301.935 804.608 301.945C804.57 301.955 804.535 301.973 804.506 301.998C804.476 302.023 804.453 302.054 804.437 302.089C804.42 302.125 804.412 302.163 804.413 302.202C804.412 302.277 804.438 302.349 804.486 302.406C804.534 302.463 804.601 302.5 804.675 302.512C805.873 302.578 807.074 302.562 808.27 302.464Z" fill="#081466"></path><path d="M803.365 301.462C803.884 301.247 804.466 301.247 804.985 301.462C806.818 302.033 804.842 304.343 803.199 303.152C803.059 303.064 802.944 302.941 802.866 302.795C802.806 302.675 802.773 302.545 802.766 302.411C802.759 302.278 802.78 302.145 802.827 302.02C802.874 301.895 802.946 301.781 803.038 301.685C803.131 301.589 803.242 301.513 803.365 301.462V301.462Z" fill="#081466"></path><path d="M820.364 283.273C819.957 279.065 818.428 275.044 815.935 271.63C812.721 267.606 808.435 264.32 804.315 264.32C802.558 264.242 800.803 264.509 799.148 265.105C803.458 266.105 807.372 268.368 810.387 271.606C813.764 275.133 815.701 279.796 815.816 284.678" fill="#75A1E9"></path><path d="M810.032 289.916C809.993 291.397 810.388 292.857 811.167 294.118C811.946 295.379 813.075 296.385 814.417 297.013C815.759 297.642 817.255 297.865 818.722 297.657C820.189 297.448 821.563 296.816 822.677 295.838C823.79 294.86 824.594 293.579 824.991 292.152C825.387 290.724 825.358 289.211 824.909 287.8C824.459 286.388 823.607 285.138 822.458 284.203C821.308 283.267 819.911 282.688 818.437 282.534C817.4 282.467 816.361 282.604 815.377 282.938C814.393 283.272 813.485 283.797 812.704 284.483C811.924 285.168 811.286 286.001 810.828 286.933C810.369 287.866 810.098 288.879 810.032 289.916Z" fill="#75A1E9"></path><path d="M813.603 290.63C813.626 291.591 813.926 292.524 814.467 293.319C815.008 294.114 815.766 294.736 816.652 295.111C817.537 295.486 818.511 295.598 819.458 295.433C820.405 295.268 821.285 294.834 821.992 294.182C822.698 293.53 823.202 292.689 823.443 291.758C823.683 290.827 823.65 289.847 823.348 288.934C823.046 288.022 822.487 287.216 821.738 286.613C820.989 286.01 820.083 285.635 819.127 285.534C817.721 285.489 816.355 285.998 815.321 286.951C814.288 287.904 813.671 289.225 813.603 290.63V290.63Z" fill="#A2C0ED"></path><path d="M802.984 426.805H725.932L718.384 380.255C718.312 379.787 718.342 379.31 718.471 378.855C718.601 378.4 718.827 377.978 719.135 377.619C719.442 377.259 719.823 376.97 720.253 376.772C720.682 376.574 721.149 376.47 721.622 376.469H790.293C791.559 376.469 792.783 376.92 793.747 377.74C794.711 378.56 795.352 379.696 795.555 380.945L802.984 426.805Z" fill="#A2C0ED"></path><path d="M800.746 426.805H723.717L716.169 380.255C716.093 379.789 716.12 379.312 716.246 378.857C716.373 378.402 716.597 377.979 716.902 377.619C717.208 377.259 717.588 376.97 718.017 376.771C718.445 376.573 718.912 376.47 719.384 376.469H788.054C789.32 376.469 790.544 376.92 791.508 377.74C792.472 378.56 793.113 379.696 793.317 380.945L800.746 426.805Z" fill="url(#paint20_linear)"></path><path d="M762.434 400.4C761.577 396.471 758.601 393.709 755.743 394.209C752.886 394.709 751.291 398.281 752.124 402.209C752.957 406.138 755.958 408.924 758.815 408.424C761.672 407.924 763.22 404.329 762.434 400.4Z" fill="#ABD1FF"></path><path style="mix-blend-mode:multiply" opacity="0.75" d="M843.7 339.776C840.152 332.204 830.842 329.013 820.437 325.299L817.58 360.444C819.103 373.65 821.489 386.742 824.723 399.636L792.507 423.995C792.109 424.278 791.677 424.51 791.221 424.686C790.769 424.686 787.649 422.923 786.006 423.209C784.363 423.495 782.435 423.59 782.435 424.185C782.435 424.781 784.983 424.852 784.983 425.424C784.983 425.995 783.268 427.138 782.601 427.138C780.716 426.971 778.82 426.971 776.934 427.138C776.649 427.471 777.911 429.519 779.196 430.662C780.401 431.49 781.809 431.976 783.268 432.067C786.241 432.002 789.185 431.455 791.983 430.448C792.507 430.067 793.84 429.329 795.126 428.614L796.221 430.638C796.221 430.638 840.128 427.138 853.367 421.114C853.701 399.565 853.486 352.539 843.7 339.776Z" fill="url(#paint21_linear)"></path><path d="M795.198 422.281C793.914 423.084 792.577 423.8 791.198 424.424C789.532 423.741 787.775 423.308 785.983 423.138C784.316 423.4 782.411 423.496 782.411 423.996C782.411 424.496 784.959 424.567 784.959 425.043C784.959 425.52 783.245 426.496 782.578 426.496C780.692 426.351 778.797 426.351 776.911 426.496C776.625 426.781 777.887 428.544 779.173 429.52C780.419 430.23 781.813 430.637 783.245 430.71C786.199 430.654 789.132 430.189 791.959 429.329C793.126 428.615 798.15 426.401 798.15 426.401" fill="#FC8975"></path><path d="M816.7 319.918C816.7 319.918 839.249 321.347 850.035 342.181C860.821 363.016 857.393 407.423 850.845 413.971C844.297 420.519 794.413 428.567 794.413 428.567L792.508 423.995L827.51 402.185C827.51 402.185 816.581 365.516 816.581 350.634" fill="url(#paint22_linear)"></path><path d="M802.96 323.414C804.614 325.58 805.924 327.99 806.841 330.557C814.342 328.176 816.675 319.818 816.675 319.818L813.699 316.461C813.699 316.461 807.817 322.461 802.96 323.414Z" fill="url(#paint23_linear)"></path><path d="M802.983 323.42C801.312 325.172 800.03 327.257 799.221 329.539C797.316 327.634 795.911 320.753 796.101 320.015C797.066 318.648 798.108 317.336 799.221 316.086C799.707 318.854 801.019 321.41 802.983 323.42V323.42Z" fill="url(#paint24_linear)"></path><path d="M147.016 675.65C147.016 675.65 131.443 680.413 131.443 683.913C131.443 685.961 154.326 685.413 155.707 684.032C157.921 681.841 153.992 675.15 153.992 675.15L147.016 675.65Z" fill="#352E73"></path><path d="M147.016 665.723V676.009C147.266 676.562 147.671 677.03 148.183 677.356C148.695 677.681 149.29 677.851 149.897 677.843C150.622 677.844 151.338 677.679 151.99 677.362C152.642 677.044 153.213 676.581 153.659 676.009L153.897 663.199" fill="#FC8975"></path><path d="M152.184 384.398C141.707 397.946 129.421 436.258 129.421 508.977C129.421 560.384 146.089 668.01 146.089 668.01L155.613 668.819C186.067 476.403 175.781 478.332 183.4 444.187C188.162 422.757 178.471 368.73 178.471 368.73" fill="url(#paint25_linear)"></path><path style="mix-blend-mode:multiply" opacity="0.35" d="M177.471 505.213C177.471 505.213 170.9 468.711 170.9 461.258C168.065 477.069 168.065 493.259 170.9 509.07C172.995 519.023 175.162 528.762 175.162 528.762L177.471 505.213Z" fill="url(#paint26_linear)"></path><path d="M145.684 665.342V669.414C145.684 669.414 155.637 671.08 155.637 670.461C155.637 669.842 156.089 665.699 156.089 665.699L145.684 665.342Z" fill="#75A1E9"></path><path d="M230.116 675.65C230.116 675.65 245.689 680.413 245.689 683.913C245.689 685.961 222.783 685.413 221.402 684.032C219.211 681.841 223.116 675.15 223.116 675.15L230.116 675.65Z" fill="#352E73"></path><path d="M228.379 665.724L230.117 675.963C229.867 676.515 229.462 676.983 228.95 677.309C228.438 677.634 227.843 677.804 227.236 677.796C226.495 677.812 225.76 677.654 225.091 677.336C224.421 677.018 223.835 676.547 223.379 675.963L221.379 663.152" fill="#FC8975"></path><path d="M202.853 378.374C213.164 395.732 231.427 431.52 231.427 504.238C231.427 555.646 230.069 668.057 230.069 668.057L221.902 668.891C195.591 595.434 173.685 501.833 168.542 447.306C166.47 425.448 170.423 368.73 170.423 368.73" fill="url(#paint27_linear)"></path><path style="mix-blend-mode:multiply" opacity="0.35" d="M204.068 380.372C192.991 377.028 181.724 374.348 170.328 372.348C170.328 372.752 170.328 373.205 170.328 373.705L152.374 384.396C149.773 387.95 147.592 391.794 145.874 395.849C153.257 398.682 161.014 400.422 168.899 401.016C183.757 402.326 202.234 399.444 211.759 394.992C209.443 389.992 206.876 385.113 204.068 380.372Z" fill="url(#paint28_linear)"></path><path d="M231.473 664.58V668.652C231.473 668.652 221.02 670.318 221.02 669.699C221.02 669.08 220.544 664.937 220.544 664.937L231.473 664.58Z" fill="#75A1E9"></path><path d="M284.619 340.037L287.976 338.204C288.432 336.547 289.079 334.949 289.905 333.442C290.5 332.299 292.501 329.489 293.096 329.489C293.691 329.489 292.429 332.394 292.667 332.394C292.905 332.394 297.429 327.632 298.144 328.251C298.549 328.513 294.263 333.013 294.263 333.013C294.263 333.013 298.787 328.013 299.334 328.584C299.882 329.156 295.358 333.775 295.358 333.775C295.358 333.775 299.549 329.299 300.12 329.775C300.692 330.251 296.406 334.537 296.406 334.537C296.406 334.537 300.191 330.727 300.358 331.156C300.525 331.584 298.429 334.632 294.739 338.299C294.096 338.942 291.62 340.871 291.453 341.037L287.572 345.085" fill="#FC8975"></path><path d="M292.452 332.964C292.564 334.085 292.508 335.217 292.286 336.321C291.905 337.427 291.24 338.413 290.357 339.179C290.322 339.207 290.3 339.248 290.296 339.293C290.291 339.337 290.305 339.382 290.333 339.417C290.362 339.452 290.403 339.474 290.447 339.478C290.492 339.483 290.537 339.469 290.571 339.441C291.57 338.716 292.317 337.698 292.71 336.529C293.103 335.36 293.121 334.097 292.762 332.916C292.762 332.75 292.452 332.797 292.452 332.916V332.964Z" fill="#CC6658"></path><path d="M64.1787 275.797L61.7976 272.773C62.0518 271.046 62.1077 269.297 61.9643 267.558C61.8707 265.844 61.4078 264.171 60.6071 262.653C60.0594 262.415 60.0832 265.606 59.8451 265.487C59.607 265.367 57.464 259.343 56.4878 259.486C56.8001 261.528 57.3515 263.526 58.1307 265.439C58.1307 265.439 55.9878 259.058 55.2496 259.343C54.5115 259.629 56.8211 265.701 56.8211 265.701C56.8211 265.701 54.7734 259.939 54.1543 260.177C53.5352 260.415 55.6544 266.034 55.6544 266.034C55.6544 266.034 53.6781 261.034 53.2733 261.272C52.8685 261.51 53.6781 265.225 55.6544 270.082C55.9877 270.939 57.4878 273.677 57.5831 273.916L59.5117 279.178" fill="#FC8975"></path><path d="M59.5356 266.058C58.7424 266.992 58.259 268.148 58.1523 269.368C58.0457 270.589 58.3211 271.812 58.9403 272.868C58.9403 273.035 59.345 272.868 59.2736 272.749C58.7783 271.72 58.5569 270.58 58.6307 269.44C58.8363 268.31 59.2307 267.223 59.7975 266.225C59.8194 266.209 59.837 266.188 59.8489 266.164C59.8608 266.139 59.8666 266.112 59.8657 266.085C59.8648 266.058 59.8573 266.032 59.8439 266.008C59.8305 265.984 59.8115 265.964 59.7886 265.95C59.7657 265.935 59.7396 265.927 59.7126 265.924C59.6855 265.922 59.6584 265.927 59.6335 265.937C59.6085 265.948 59.5866 265.965 59.5695 265.986C59.5524 266.007 59.5408 266.032 59.5356 266.058V266.058Z" fill="#CC6658"></path><path d="M287.002 338.583C287.002 338.583 252.857 351.156 245.119 351.156C238.714 351.156 227.808 333.869 212.736 322.082C206.592 317.428 199.848 313.624 192.687 310.772L164.114 310.177C155.454 310.374 146.812 311.066 138.231 312.249C124.064 314.177 110.778 313.534 104.587 310.772C92.6813 305.415 62.7033 273.246 62.7033 273.246C61.7065 273.122 60.6944 273.236 59.7504 273.579C58.8064 273.923 57.9578 274.486 57.2744 275.223C57.2744 276.818 72.6801 320.797 92.9908 333.964C107.92 343.655 129.707 345.25 143.279 345.155V354.203C143.279 358.68 137.946 380.681 144.256 386.967C150.042 392.777 172.162 393.491 180.782 393.491C193.592 393.491 206.688 391.467 209.95 386.967C211.593 384.729 211.355 374.704 210.855 365.537C221.093 371.99 230.332 378.395 242.166 378.395C264.286 378.395 290.288 343.798 290.288 343.798L287.002 338.583Z" fill="url(#paint29_linear)"></path><path style="mix-blend-mode:multiply" opacity="0.75" d="M211.26 371.92L210.974 365.539L201.402 355.848L211.26 371.92Z" fill="url(#paint30_linear)"></path><path style="mix-blend-mode:multiply" opacity="0.75" d="M143.397 345.155C143.397 344.012 145.326 333.059 145.326 331.297C142.469 337.488 138.183 345.083 138.183 345.083L143.397 345.155Z" fill="url(#paint31_linear)"></path><path d="M187.853 259.535C195.901 264.559 194.52 274.798 197.782 281.203C200.163 285.846 203.806 289.751 204.163 295.252C204.521 301.252 196.734 304.062 192.544 303.419C184.353 302.157 177.329 306.324 169.066 305.324C163.447 304.633 165.566 301.823 161.923 297.514C159.775 294.827 158.511 291.542 158.304 288.108C158.12 284.702 158.368 281.285 159.042 277.941" fill="#F42A73"></path><path d="M172.995 294.319L171.376 309.058L164.232 310.177C164.232 310.177 169.209 319.178 177.162 319.178C185.115 319.178 192.71 310.772 192.71 310.772L184.972 308.391L182.019 287.676" fill="#FC8975"></path><path d="M161.255 270.271C160.538 275.187 160.594 280.184 161.422 285.082C161.855 287.525 162.847 289.834 164.322 291.83C165.797 293.825 167.714 295.452 169.922 296.582C172.018 297.402 174.244 297.837 176.494 297.868C180.272 298.295 184.08 297.386 187.256 295.297C188.935 293.837 190.231 291.989 191.032 289.914C191.833 287.839 192.114 285.6 191.852 283.391C191.307 279.021 190.061 274.768 188.161 270.795C186.574 267.017 184.986 263.231 183.399 259.438" fill="#FC8975"></path><path d="M142.896 289.917C141.082 291.624 139.794 293.813 139.182 296.227C139.098 297.456 139.394 298.681 140.028 299.737C140.663 300.793 141.605 301.629 142.73 302.132C144.631 302.805 146.677 302.961 148.658 302.585C150.955 302.37 153.269 302.466 155.54 302.871C157.469 303.252 159.302 303.942 161.207 304.49C163.975 305.362 166.902 305.614 169.779 305.228C170.028 305.218 170.272 305.15 170.491 305.03C170.71 304.911 170.898 304.742 171.041 304.537C171.125 304.275 171.147 303.996 171.106 303.724C171.065 303.451 170.961 303.192 170.803 302.966C169.275 299.12 168.767 294.946 169.326 290.846C169.464 288.73 169.807 286.633 170.35 284.584C170.866 282.886 171.511 281.231 172.279 279.631C173.684 276.56 175.422 273.607 176.755 270.512C178.089 267.416 178.851 262.63 183.184 263.368C185.97 263.773 187.161 268.273 189.018 271.012C191.756 267.869 194.852 265.964 189.018 258.511C186.089 254.796 181.089 254.987 176.66 255.796C174.279 255.63 174.279 254.654 171.898 254.487C167.662 254.424 163.494 255.56 159.875 257.763C156.256 259.966 153.333 263.148 151.444 266.94C147.397 275.131 148.325 283.131 142.896 289.917Z" fill="#F42A73"></path><path d="M170.828 292.652C170.202 292.605 169.581 292.51 168.97 292.366C167.073 291.944 165.386 290.864 164.208 289.318C163.767 288.757 163.502 288.078 163.446 287.366C163.446 287.328 163.454 287.291 163.468 287.256C163.482 287.222 163.503 287.19 163.53 287.164C163.557 287.137 163.588 287.116 163.623 287.102C163.657 287.087 163.695 287.08 163.732 287.08C163.77 287.08 163.807 287.087 163.841 287.102C163.876 287.116 163.908 287.137 163.934 287.164C163.961 287.19 163.982 287.222 163.996 287.256C164.01 287.291 164.018 287.328 164.018 287.366C164.073 287.96 164.305 288.524 164.685 288.985C165.772 290.416 167.334 291.412 169.09 291.795C170.836 292.147 172.625 292.243 174.399 292.08C174.476 292.085 174.549 292.116 174.605 292.168C174.661 292.22 174.698 292.29 174.709 292.366C174.709 292.404 174.702 292.441 174.687 292.475C174.673 292.51 174.652 292.542 174.625 292.568C174.599 292.595 174.567 292.616 174.533 292.63C174.498 292.644 174.461 292.652 174.423 292.652C173.227 292.747 172.024 292.747 170.828 292.652V292.652Z" fill="#081466"></path><path d="M175.71 291.532C175.19 291.33 174.612 291.33 174.091 291.532C172.282 292.128 174.258 294.437 175.901 293.247C176.041 293.159 176.156 293.036 176.234 292.89C176.293 292.767 176.326 292.633 176.331 292.497C176.337 292.361 176.314 292.225 176.265 292.098C176.216 291.971 176.141 291.855 176.046 291.758C175.951 291.661 175.836 291.584 175.71 291.532V291.532Z" fill="#081466"></path><path d="M158.661 273.343C159.106 269.128 160.668 265.108 163.185 261.699C166.4 257.699 170.709 254.389 174.829 254.389C176.588 254.314 178.344 254.589 179.996 255.199C175.684 256.193 171.769 258.457 168.757 261.699C165.379 265.217 163.443 269.872 163.328 274.747" fill="#081466"></path><path d="M169.066 279.961C169.104 281.443 168.71 282.903 167.931 284.163C167.152 285.424 166.022 286.43 164.68 287.059C163.339 287.687 161.843 287.911 160.376 287.702C158.909 287.493 157.534 286.861 156.421 285.884C155.307 284.906 154.503 283.625 154.107 282.197C153.71 280.769 153.739 279.257 154.189 277.845C154.639 276.433 155.491 275.183 156.64 274.248C157.789 273.313 159.186 272.733 160.66 272.58C162.753 272.449 164.811 273.152 166.386 274.536C167.962 275.919 168.925 277.87 169.066 279.961V279.961Z" fill="#081466"></path><path d="M165.567 280.749C165.719 281.437 165.725 282.15 165.583 282.841C165.44 283.531 165.154 284.184 164.741 284.756C164.329 285.328 163.8 285.806 163.19 286.16C162.58 286.513 161.902 286.733 161.2 286.806C160.499 286.878 159.79 286.802 159.121 286.581C158.451 286.361 157.835 286.001 157.315 285.526C156.794 285.05 156.379 284.47 156.098 283.823C155.818 283.177 155.677 282.478 155.685 281.773C155.532 281.084 155.527 280.372 155.669 279.681C155.811 278.99 156.098 278.338 156.511 277.766C156.923 277.194 157.451 276.715 158.062 276.362C158.672 276.009 159.35 275.789 160.051 275.716C160.753 275.643 161.461 275.72 162.131 275.941C162.801 276.161 163.416 276.521 163.937 276.996C164.458 277.471 164.872 278.051 165.153 278.698C165.434 279.345 165.575 280.044 165.567 280.749V280.749Z" fill="#2D4CBA"></path><path d="M636.094 84.1901L624.189 89.1904C623.885 89.3198 623.619 89.524 623.416 89.7839C623.213 90.0439 623.079 90.3511 623.027 90.6769C622.974 91.0027 623.005 91.3364 623.117 91.6469C623.229 91.9574 623.417 92.2345 623.665 92.4525L632.261 99.7862C632.51 99.998 632.808 100.144 633.128 100.211C633.448 100.277 633.779 100.262 634.092 100.168C634.405 100.073 634.689 99.9011 634.918 99.668C635.147 99.435 635.314 99.1482 635.404 98.8338L638.785 86.4283C638.879 86.0727 638.87 85.6975 638.759 85.347C638.647 84.9964 638.437 84.6851 638.154 84.4499C637.872 84.2146 637.527 84.0651 637.162 84.0191C636.797 83.973 636.427 84.0324 636.094 84.1901V84.1901Z" stroke="#CFE0F5" stroke-miterlimit="10"></path><path d="M121.847 240.413L125.348 252.89C125.435 253.209 125.604 253.5 125.837 253.735C126.07 253.97 126.359 254.141 126.677 254.232C126.995 254.323 127.331 254.33 127.653 254.254C127.975 254.177 128.271 254.019 128.514 253.795L136.896 246.199C137.137 245.978 137.318 245.699 137.423 245.388C137.528 245.078 137.553 244.746 137.496 244.424C137.439 244.101 137.302 243.798 137.097 243.543C136.892 243.287 136.627 243.087 136.324 242.961L124.419 238.199C124.094 238.075 123.742 238.041 123.399 238.101C123.056 238.161 122.736 238.313 122.473 238.539C122.209 238.766 122.012 239.06 121.902 239.39C121.792 239.72 121.773 240.074 121.847 240.413V240.413Z" stroke="#CFE0F5" stroke-miterlimit="10"></path><path d="M882.799 390.279L891.99 381.136C892.221 380.902 892.39 380.613 892.48 380.297C892.57 379.98 892.578 379.646 892.505 379.325C892.431 379.005 892.278 378.708 892.058 378.462C891.839 378.217 891.562 378.031 891.252 377.921L880.513 374.326C880.203 374.222 879.873 374.199 879.552 374.259C879.231 374.318 878.931 374.457 878.679 374.664C878.426 374.871 878.231 375.139 878.11 375.442C877.99 375.745 877.948 376.074 877.989 376.397L879.513 389.136C879.553 389.498 879.695 389.84 879.922 390.124C880.149 390.409 880.452 390.623 880.796 390.742C881.139 390.862 881.51 390.882 881.864 390.8C882.219 390.718 882.542 390.537 882.799 390.279V390.279Z" stroke="#CFE0F5" stroke-miterlimit="10"></path><path d="M839.748 248.556L843.129 261.081C843.22 261.397 843.389 261.686 843.621 261.92C843.854 262.153 844.141 262.324 844.457 262.417C844.773 262.51 845.108 262.521 845.429 262.45C845.751 262.378 846.049 262.227 846.296 262.009L854.749 254.485C854.991 254.267 855.174 253.992 855.281 253.685C855.388 253.377 855.415 253.048 855.361 252.727C855.306 252.406 855.171 252.104 854.968 251.85C854.766 251.595 854.502 251.396 854.202 251.271L842.296 246.27C841.966 246.154 841.611 246.129 841.268 246.198C840.925 246.266 840.606 246.426 840.346 246.659C840.085 246.893 839.893 247.192 839.788 247.526C839.682 247.86 839.669 248.215 839.748 248.556V248.556Z" stroke="#CFE0F5" stroke-miterlimit="10"></path><path d="M800.228 222.908L794.345 227.404L798.841 233.288L804.725 228.791L800.228 222.908Z" fill="#CFE0F5"></path><path d="M746.82 172.026L739.422 172.355L739.751 179.753L747.149 179.424L746.82 172.026Z" fill="#CFE0F5"></path><path d="M270.773 268.057L263.873 270.746L266.562 277.646L273.462 274.957L270.773 268.057Z" fill="#CFE0F5"></path><path d="M339.988 90.7811L333.102 88.1152L330.436 95.0021L337.323 97.6679L339.988 90.7811Z" fill="#CFE0F5"></path><path d="M52.9946 457.389L45.5967 457.719L45.9261 465.117L53.324 464.787L52.9946 457.389Z" fill="#CFE0F5"></path><defs><linearGradient id="paint0_linear" x1="483.488" y1="722.442" x2="483.488" y2="641.342" gradientUnits="userSpaceOnUse"><stop offset="0.01" stop-color="#FCF5F1"></stop><stop offset="0.48" stop-color="#FCEFED"></stop><stop offset="1" stop-color="#FCE1E3"></stop></linearGradient><linearGradient id="paint1_linear" x1="795.531" y1="641.341" x2="795.531" y2="343.252" gradientUnits="userSpaceOnUse"><stop stop-color="#466DE5"></stop><stop offset="1" stop-color="#78BFFF"></stop></linearGradient><linearGradient id="paint2_linear" x1="84414.6" y1="80774.5" x2="84414.6" y2="62620.7" gradientUnits="userSpaceOnUse"><stop stop-color="#466DE5"></stop><stop offset="1" stop-color="#78BFFF"></stop></linearGradient><linearGradient id="paint3_linear" x1="38336.6" y1="94969.7" x2="28846.4" y2="91539.5" gradientUnits="userSpaceOnUse"><stop stop-color="#466DE5"></stop><stop offset="1" stop-color="#78BFFF"></stop></linearGradient><linearGradient id="paint4_linear" x1="58740.8" y1="99454.5" x2="58740.8" y2="71854.3" gradientUnits="userSpaceOnUse"><stop stop-color="#466DE5"></stop><stop offset="1" stop-color="#78BFFF"></stop></linearGradient><linearGradient id="paint5_linear" x1="50620.5" y1="65217.4" x2="51293.5" y2="55138.2" gradientUnits="userSpaceOnUse"><stop stop-color="#466DE5"></stop><stop offset="1" stop-color="#78BFFF"></stop></linearGradient><linearGradient id="paint6_linear" x1="26689.6" y1="34709.7" x2="28284.8" y2="31916.3" gradientUnits="userSpaceOnUse"><stop stop-color="#466DE5"></stop><stop offset="1" stop-color="#78BFFF"></stop></linearGradient><linearGradient id="paint7_linear" x1="389.17" y1="501.771" x2="383.551" y2="254.549" gradientUnits="userSpaceOnUse"><stop stop-color="#29225E"></stop><stop offset="1" stop-color="#3F368C"></stop></linearGradient><linearGradient id="paint8_linear" x1="23381.6" y1="81862.6" x2="23381.6" y2="56222.5" gradientUnits="userSpaceOnUse"><stop stop-color="#29225E"></stop><stop offset="1" stop-color="#3F368C"></stop></linearGradient><linearGradient id="paint9_linear" x1="403.199" y1="200.098" x2="516.11" y2="146.19" gradientUnits="userSpaceOnUse"><stop stop-color="#FCC73C"></stop><stop offset="1" stop-color="#FC7A3C"></stop></linearGradient><linearGradient id="paint10_linear" x1="657.094" y1="729.655" x2="363.41" y2="221.006" gradientUnits="userSpaceOnUse"><stop stop-color="#B3D3F4"></stop><stop offset="1" stop-color="#D3DCED"></stop></linearGradient><linearGradient id="paint11_linear" x1="526.729" y1="625.837" x2="526.729" y2="205.336" gradientUnits="userSpaceOnUse"><stop stop-color="#FFD5A7"></stop><stop offset="0.37" stop-color="#FFD7AA"></stop><stop offset="0.65" stop-color="#FFDEB4"></stop><stop offset="0.91" stop-color="#FFE9C4"></stop><stop offset="1" stop-color="#FFEECC"></stop></linearGradient><linearGradient id="paint12_linear" x1="657.094" y1="729.657" x2="396.388" y2="278.107" gradientUnits="userSpaceOnUse"><stop stop-color="#CDE8FF"></stop><stop offset="1" stop-color="#EEE7E9"></stop></linearGradient><linearGradient id="paint13_linear" x1="140557" y1="72048.7" x2="123785" y2="32625.4" gradientUnits="userSpaceOnUse"><stop stop-color="#CDE8FF"></stop><stop offset="1" stop-color="#EEE7E9"></stop></linearGradient><linearGradient id="paint14_linear" x1="3396.02" y1="46211.8" x2="52.2404" y2="41646.3" gradientUnits="userSpaceOnUse"><stop stop-color="#466DE5"></stop><stop offset="1" stop-color="#78BFFF"></stop></linearGradient><linearGradient id="paint15_linear" x1="27139.3" y1="16148.7" x2="24988.2" y2="17737.3" gradientUnits="userSpaceOnUse"><stop stop-color="#FCC73C"></stop><stop offset="1" stop-color="#FC7A3C"></stop></linearGradient><linearGradient id="paint16_linear" x1="37891.8" y1="93533.9" x2="37891.8" y2="70661.3" gradientUnits="userSpaceOnUse"><stop stop-color="#29225E"></stop><stop offset="1" stop-color="#3F368C"></stop></linearGradient><linearGradient id="paint17_linear" x1="38191.5" y1="93533.9" x2="38191.5" y2="70661.3" gradientUnits="userSpaceOnUse"><stop stop-color="#29225E"></stop><stop offset="1" stop-color="#3F368C"></stop></linearGradient><linearGradient id="paint18_linear" x1="99677.6" y1="45179.4" x2="99677.6" y2="51545.4" gradientUnits="userSpaceOnUse"><stop stop-color="#FCC73C"></stop><stop offset="1" stop-color="#FC7A3C"></stop></linearGradient><linearGradient id="paint19_linear" x1="1567.64" y1="4238.71" x2="1568.82" y2="4238.71" gradientUnits="userSpaceOnUse"><stop stop-color="#FCC73C"></stop><stop offset="1" stop-color="#FC7A3C"></stop></linearGradient><linearGradient id="paint20_linear" x1="791.459" y1="436.091" x2="724.932" y2="369.564" gradientUnits="userSpaceOnUse"><stop stop-color="#5789EE"></stop><stop offset="1" stop-color="#78BFFF"></stop></linearGradient><linearGradient id="paint21_linear" x1="46151.4" y1="29809.3" x2="48612.7" y2="29809.3" gradientUnits="userSpaceOnUse"><stop stop-color="#FCC73C"></stop><stop offset="1" stop-color="#FC7A3C"></stop></linearGradient><linearGradient id="paint22_linear" x1="40299" y1="29344.4" x2="40299" y2="32863.6" gradientUnits="userSpaceOnUse"><stop stop-color="#FCC73C"></stop><stop offset="1" stop-color="#FC7A3C"></stop></linearGradient><linearGradient id="paint23_linear" x1="809.818" y1="330.652" x2="809.818" y2="316.366" gradientUnits="userSpaceOnUse"><stop stop-color="#FCAE3C"></stop><stop offset="1" stop-color="#FC7A3C"></stop></linearGradient><linearGradient id="paint24_linear" x1="4950.82" y1="3753.24" x2="4950.82" y2="3676.69" gradientUnits="userSpaceOnUse"><stop stop-color="#FCAE3C"></stop><stop offset="1" stop-color="#FC7A3C"></stop></linearGradient><linearGradient id="paint25_linear" x1="18511.3" y1="119798" x2="18511.3" y2="81977.9" gradientUnits="userSpaceOnUse"><stop stop-color="#29225E"></stop><stop offset="1" stop-color="#3F368C"></stop></linearGradient><linearGradient id="paint26_linear" x1="3118.62" y1="23355.9" x2="3118.62" y2="21442.2" gradientUnits="userSpaceOnUse"><stop stop-color="#29225E"></stop><stop offset="1" stop-color="#3F368C"></stop></linearGradient><linearGradient id="paint27_linear" x1="22410" y1="119827" x2="22410" y2="81997.3" gradientUnits="userSpaceOnUse"><stop stop-color="#29225E"></stop><stop offset="1" stop-color="#3F368C"></stop></linearGradient><linearGradient id="paint28_linear" x1="22645.5" y1="8651.93" x2="22645.5" y2="8299.17" gradientUnits="userSpaceOnUse"><stop stop-color="#29225E"></stop><stop offset="1" stop-color="#3F368C"></stop></linearGradient><linearGradient id="paint29_linear" x1="79165.4" y1="30084.5" x2="79165.4" y2="34328.5" gradientUnits="userSpaceOnUse"><stop stop-color="#FCC73C"></stop><stop offset="1" stop-color="#FC7A3C"></stop></linearGradient><linearGradient id="paint30_linear" x1="1055.57" y1="2791.77" x2="1055.57" y2="2867.48" gradientUnits="userSpaceOnUse"><stop stop-color="#FCC73C"></stop><stop offset="1" stop-color="#FC7A3C"></stop></linearGradient><linearGradient id="paint31_linear" x1="2455.96" y1="3922.43" x2="2477.6" y2="3922.43" gradientUnits="userSpaceOnUse"><stop stop-color="#FCC73C"></stop><stop offset="1" stop-color="#FC7A3C"></stop></linearGradient></defs></svg>